<?xml version="1.0" encoding="utf-8"?>
<!-- Generator: Adobe Illustrator 26.1.0, SVG Export Plug-In . SVG Version: 6.00 Build 0)  -->
<svg version="1.1" id="Layer_1" xmlns="http://www.w3.org/2000/svg" xmlns:xlink="http://www.w3.org/1999/xlink" x="0px" y="0px"
	 viewBox="0 0 363.3 83" style="enable-background:new 0 0 363.3 83;" xml:space="preserve">
<style type="text/css">
	.st0{fill-rule:evenodd;clip-rule:evenodd;fill:#FFFFFF;}
	.st1{fill:#FFFFFF;}
</style>
<g>
	<path id="Your_cloud_gaming_experts" class="st0" d="M108.1,70.2h1.9v-4.1c0.2-0.3,0.5-0.6,0.7-1c0.3-0.4,0.6-0.8,0.8-1.2
		c0.3-0.4,0.6-0.8,0.9-1.2s0.6-0.8,0.8-1.2c0.2-0.4,0.5-0.7,0.7-1s0.3-0.6,0.4-0.8c-0.1-0.1-0.2-0.2-0.3-0.2
		c-0.2-0.1-0.5-0.2-0.7-0.2c-0.3,0-0.5,0.1-0.8,0.2c-0.2,0.1-0.3,0.3-0.4,0.5c-0.2,0.3-0.4,0.6-0.6,1s-0.5,0.7-0.7,1.1
		c-0.3,0.4-0.5,0.8-0.8,1.2s-0.5,0.7-0.8,1.1c-0.3-0.3-0.6-0.7-0.9-1.2s-0.7-0.9-1-1.4s-0.6-0.9-0.9-1.3s-0.5-0.7-0.7-1l-0.3-0.1
		c-0.2-0.1-0.3-0.1-0.5-0.1s-0.5,0.1-0.6,0.2c-0.2,0.1-0.2,0.4-0.2,0.6c0,0.3,0.1,0.5,0.3,0.8c0.2,0.3,0.4,0.6,0.6,0.8
		s0.4,0.6,0.7,0.9c0.3,0.4,0.6,0.8,0.9,1.2l0.9,1.2c0.3,0.4,0.6,0.8,0.8,1.1L108.1,70.2L108.1,70.2z M117.6,62.4
		c-0.5,0.2-1,0.5-1.4,0.9s-0.7,0.8-0.9,1.3c-0.2,0.5-0.3,1.1-0.3,1.7s0.1,1.1,0.3,1.7c0.2,0.5,0.5,1,0.9,1.3
		c0.4,0.4,0.9,0.7,1.4,0.9c1.1,0.4,2.3,0.4,3.4,0c0.5-0.2,1-0.5,1.4-0.9s0.7-0.8,0.9-1.3c0.2-0.5,0.3-1.1,0.3-1.7s-0.1-1.1-0.3-1.7
		c-0.2-0.5-0.5-1-0.9-1.3c-0.4-0.4-0.9-0.7-1.4-0.9C120,62,118.7,62,117.6,62.4L117.6,62.4z M118.3,68.7c-0.3-0.1-0.6-0.3-0.8-0.6
		c-0.2-0.2-0.4-0.5-0.5-0.8s-0.2-0.7-0.2-1c0-0.4,0.1-0.7,0.2-1s0.3-0.6,0.5-0.8c0.2-0.2,0.5-0.4,0.8-0.5c0.6-0.3,1.4-0.3,2,0
		c0.3,0.1,0.6,0.3,0.8,0.5c0.2,0.2,0.4,0.5,0.5,0.8s0.2,0.7,0.2,1s-0.1,0.7-0.2,1s-0.3,0.6-0.5,0.8c-0.2,0.2-0.5,0.4-0.8,0.6
		C119.7,68.9,119,68.9,118.3,68.7z M125.2,67c0,0.5,0.1,1,0.3,1.4c0.2,0.4,0.5,0.8,0.8,1.1c0.4,0.3,0.8,0.5,1.2,0.7
		c1,0.3,2.1,0.3,3.1,0c0.4-0.1,0.9-0.4,1.2-0.7c0.3-0.3,0.6-0.7,0.8-1.1c0.2-0.5,0.3-1,0.3-1.4v-4.6c-0.1,0-0.2-0.1-0.3-0.1
		c-0.2,0-0.4-0.1-0.5-0.1c-0.2,0-0.5,0.1-0.7,0.2c-0.2,0.2-0.3,0.4-0.3,0.6v3.5c0,0.6-0.1,1.2-0.5,1.6c-0.9,0.7-2.2,0.7-3.1,0
		c-0.4-0.5-0.5-1-0.5-1.6v-4.2c-0.1,0-0.2-0.1-0.3-0.1c-0.2,0-0.3-0.1-0.5-0.1c-0.3,0-0.5,0.1-0.7,0.2c-0.2,0.2-0.3,0.4-0.3,0.6
		L125.2,67L125.2,67z M134.8,70.2h1.8v-4.6c-0.2-0.9,0.5-1.8,1.4-1.9c0.2,0,0.3,0,0.5,0c0.3,0,0.6,0,0.9,0.1
		c0.2,0.1,0.5,0.1,0.7,0.2c0.1-0.1,0.2-0.2,0.2-0.3c0.1-0.2,0.1-0.3,0.1-0.5c0-0.4-0.3-0.7-0.6-0.8c-0.5-0.2-1.1-0.3-1.6-0.3
		c-0.9-0.1-1.8,0.2-2.5,0.8c-0.6,0.6-0.9,1.4-0.9,2.3L134.8,70.2L134.8,70.2z M151.5,68.3c-0.2,0.1-0.4,0.2-0.7,0.3
		c-0.4,0.2-0.8,0.2-1.3,0.2c-0.3,0-0.7,0-1-0.2c-0.3-0.1-0.6-0.3-0.8-0.5c-0.3-0.2-0.4-0.5-0.6-0.8c-0.1-0.4-0.2-0.8-0.2-1.2
		c0-0.4,0.1-0.8,0.2-1.1c0.1-0.3,0.3-0.6,0.5-0.8c0.2-0.2,0.5-0.4,0.8-0.5s0.7-0.2,1-0.2c0.5,0,0.9,0.1,1.3,0.2
		c0.3,0.1,0.6,0.3,0.8,0.5c0.2-0.1,0.3-0.3,0.4-0.4c0.1-0.2,0.2-0.4,0.2-0.6c0-0.2-0.1-0.3-0.1-0.5c-0.1-0.2-0.3-0.3-0.5-0.4
		c-0.3-0.1-0.6-0.3-0.9-0.3c-0.4-0.1-0.9-0.1-1.3-0.1c-0.6,0-1.2,0.1-1.7,0.3s-1,0.5-1.4,0.8c-0.4,0.4-0.7,0.8-0.9,1.3
		c-0.2,0.6-0.3,1.2-0.3,1.8c0,0.6,0.1,1.2,0.3,1.8c0.2,0.5,0.5,0.9,0.9,1.3s0.9,0.6,1.4,0.8c0.5,0.2,1.1,0.3,1.7,0.3
		c0.3,0,0.7,0,1-0.1c0.3,0,0.5-0.1,0.8-0.2c0.2-0.1,0.4-0.2,0.6-0.3c0.2-0.1,0.3-0.2,0.5-0.3L151.5,68.3z M153.4,70.2h1.8V58.8
		c-0.1,0-0.2-0.1-0.3-0.1c-0.2,0-0.3-0.1-0.5-0.1c-0.3,0-0.5,0.1-0.7,0.2c-0.2,0.2-0.3,0.4-0.3,0.6V70.2L153.4,70.2z M159.4,62.4
		c-0.5,0.2-1,0.5-1.4,0.9s-0.7,0.8-0.9,1.3s-0.3,1.1-0.3,1.7s0.1,1.1,0.3,1.7c0.2,0.5,0.5,1,0.9,1.3c0.4,0.4,0.9,0.7,1.4,0.9
		c1.1,0.4,2.3,0.4,3.4,0c0.5-0.2,1-0.5,1.4-0.9s0.7-0.8,0.9-1.3s0.3-1.1,0.3-1.7s-0.1-1.1-0.3-1.7c-0.2-0.5-0.5-1-0.9-1.3
		c-0.4-0.4-0.9-0.7-1.4-0.9C161.7,62,160.5,62,159.4,62.4L159.4,62.4z M160.1,68.7c-0.3-0.1-0.6-0.3-0.8-0.6
		c-0.2-0.2-0.4-0.5-0.5-0.8s-0.2-0.7-0.2-1c0-0.4,0.1-0.7,0.2-1c0.1-0.3,0.3-0.6,0.5-0.8c0.2-0.2,0.5-0.4,0.8-0.5
		c0.6-0.3,1.4-0.3,2,0c0.3,0.1,0.6,0.3,0.8,0.5s0.4,0.5,0.5,0.8s0.2,0.7,0.2,1s-0.1,0.7-0.2,1c-0.1,0.3-0.3,0.6-0.5,0.8
		c-0.2,0.2-0.5,0.4-0.8,0.6C161.5,68.9,160.8,68.9,160.1,68.7L160.1,68.7z M167,67c0,0.5,0.1,1,0.3,1.4s0.5,0.8,0.8,1.1
		c0.4,0.3,0.8,0.5,1.2,0.7c1,0.3,2.1,0.3,3.1,0c0.4-0.1,0.9-0.4,1.2-0.7c0.3-0.3,0.6-0.7,0.8-1.1c0.2-0.5,0.3-1,0.3-1.4v-4.6
		c-0.1,0-0.2-0.1-0.3-0.1c-0.2,0-0.4-0.1-0.5-0.1c-0.2,0-0.5,0.1-0.7,0.2c-0.2,0.2-0.3,0.4-0.3,0.6v3.5c0,0.6-0.1,1.2-0.5,1.6
		c-0.9,0.7-2.2,0.7-3.1,0c-0.4-0.5-0.5-1-0.5-1.6v-4.2c-0.1,0-0.2-0.1-0.3-0.1c-0.2,0-0.3-0.1-0.5-0.1c-0.3,0-0.5,0.1-0.7,0.2
		c-0.2,0.2-0.3,0.4-0.3,0.6V67L167,67z M183,63.3c-0.3-0.4-0.7-0.7-1.1-0.9c-0.5-0.2-1.1-0.4-1.6-0.4c-0.6,0-1.1,0.1-1.6,0.3
		s-0.9,0.5-1.3,0.9c-0.4,0.4-0.7,0.8-0.9,1.3c-0.2,0.5-0.3,1.1-0.3,1.7s0.1,1.1,0.3,1.7c0.2,0.5,0.5,1,0.9,1.3
		c0.4,0.4,0.8,0.7,1.4,0.9c0.5,0.2,1.1,0.3,1.7,0.3c0.6,0,1.2-0.1,1.7-0.3c0.5-0.2,1-0.5,1.3-0.9c0.4-0.4,0.7-0.9,0.9-1.4
		c0.2-0.6,0.3-1.3,0.3-2v-7.1c-0.1,0-0.2-0.1-0.3-0.1c-0.2,0-0.3-0.1-0.5-0.1c-0.3,0-0.5,0.1-0.7,0.2c-0.2,0.2-0.3,0.4-0.2,0.6
		L183,63.3L183,63.3z M182.8,67.3c-0.1,0.3-0.3,0.6-0.5,0.8c-0.2,0.2-0.5,0.4-0.8,0.5s-0.6,0.2-1,0.2c-0.7,0-1.3-0.3-1.8-0.7
		c-0.2-0.2-0.4-0.5-0.5-0.8s-0.2-0.7-0.2-1c0-0.4,0.1-0.7,0.2-1c0.1-0.3,0.3-0.6,0.5-0.8c0.5-0.5,1.1-0.8,1.8-0.7
		c0.3,0,0.7,0.1,1,0.2c0.3,0.1,0.6,0.3,0.8,0.5s0.4,0.5,0.5,0.8s0.2,0.7,0.2,1C183,66.6,183,67,182.8,67.3L182.8,67.3z M190.9,73
		c0.1,0,0.2,0.1,0.4,0.2s0.5,0.2,0.7,0.2c0.7,0.2,1.4,0.3,2.1,0.2c0.6,0,1.2-0.1,1.8-0.3c0.5-0.2,1-0.4,1.4-0.8s0.7-0.9,0.9-1.5
		c0.2-0.7,0.4-1.4,0.3-2.1v-2.3c0-0.7-0.1-1.4-0.3-2c-0.2-0.5-0.5-1-0.9-1.4s-0.8-0.6-1.3-0.8s-1.1-0.3-1.7-0.3
		c-0.6,0-1.2,0.1-1.7,0.3s-1,0.5-1.4,0.9s-0.7,0.8-0.9,1.3s-0.3,1.1-0.3,1.7s0.1,1.1,0.3,1.6s0.5,0.9,0.8,1.3
		c0.4,0.4,0.8,0.6,1.3,0.8c0.5,0.2,1.1,0.3,1.6,0.3c0.6,0,1.1-0.1,1.7-0.4c0.4-0.2,0.8-0.5,1.1-0.8v0.2c0,0.5-0.1,1-0.3,1.4
		c-0.2,0.3-0.4,0.6-0.7,0.9c-0.3,0.2-0.6,0.4-0.9,0.4c-0.3,0.1-0.7,0.1-1.1,0.1c-0.3,0-0.6,0-0.9-0.1c-0.3,0-0.5-0.1-0.8-0.2
		c-0.2,0-0.4-0.1-0.5-0.2s-0.2-0.1-0.3-0.1L190.9,73z M192.7,68.1c-0.5-0.5-0.7-1.2-0.7-1.8c0-0.3,0.1-0.7,0.2-1
		c0.1-0.3,0.3-0.6,0.5-0.8c0.2-0.2,0.5-0.4,0.8-0.5c0.6-0.3,1.3-0.3,2,0c0.3,0.1,0.5,0.3,0.8,0.5c0.2,0.2,0.4,0.5,0.5,0.8
		c0.2,0.7,0.2,1.4,0,2c-0.1,0.3-0.3,0.6-0.5,0.8c-0.2,0.2-0.5,0.4-0.8,0.5s-0.6,0.2-1,0.2C193.8,68.8,193.1,68.5,192.7,68.1
		L192.7,68.1z M207.5,65.5c0-0.5-0.1-1.1-0.3-1.6c-0.2-0.4-0.5-0.8-0.9-1c-0.4-0.3-0.8-0.5-1.3-0.6c-0.6-0.1-1.1-0.2-1.7-0.2
		c-0.4,0-0.9,0-1.3,0.1c-0.3,0-0.6,0.1-0.8,0.3c-0.2,0.1-0.3,0.2-0.4,0.4c-0.1,0.1-0.1,0.3-0.1,0.4c0,0.2,0.1,0.4,0.2,0.5
		c0.1,0.1,0.2,0.2,0.3,0.3c0.2-0.1,0.5-0.3,0.7-0.3c0.5-0.2,1-0.2,1.4-0.2c0.3,0,0.7,0,1,0.1c0.3,0,0.5,0.1,0.8,0.3
		c0.2,0.1,0.4,0.3,0.5,0.6c0.1,0.3,0.2,0.6,0.2,0.9c-0.2,0-0.4,0-0.8-0.1c-0.4,0-0.7,0-1.1,0c-0.6,0-1.2,0-1.8,0.2
		c-0.4,0.1-0.8,0.3-1.2,0.5c-0.3,0.2-0.5,0.5-0.6,0.8c-0.1,0.4-0.2,0.8-0.2,1.1c0,0.3,0.1,0.6,0.2,1c0.1,0.3,0.3,0.6,0.6,0.8
		c0.4,0.3,0.8,0.5,1.2,0.6c0.7,0.2,1.3,0.2,2,0.2c0.4,0,0.8,0,1.2,0s0.7,0,1-0.1s0.6-0.1,0.8-0.1s0.4-0.1,0.5-0.1L207.5,65.5
		L207.5,65.5z M205.7,69c-0.1,0-0.3,0-0.6,0.1c-0.4,0-0.8,0.1-1.2,0.1s-0.7,0-1.1-0.1c-0.2,0-0.5-0.1-0.7-0.3
		c-0.2-0.1-0.3-0.2-0.4-0.4c-0.1-0.2-0.1-0.3-0.1-0.5c0-0.4,0.2-0.8,0.5-1c0.5-0.3,1-0.4,1.6-0.3c0.4,0,0.9,0,1.3,0.1
		c0.3,0,0.5,0.1,0.6,0.1L205.7,69L205.7,69z M209.3,70.2h1.8v-4.5c-0.1-0.6,0.1-1.1,0.5-1.6c0.8-0.7,1.9-0.6,2.7,0
		c0.4,0.5,0.6,1.1,0.5,1.7v4.3h1.8v-4.3c-0.1-0.6,0.1-1.2,0.5-1.7c0.4-0.3,0.9-0.5,1.4-0.5s1,0.1,1.3,0.5c0.4,0.4,0.5,1,0.5,1.6v4.5
		h1.8v-5.1c0-0.5-0.1-0.9-0.3-1.3c-0.2-0.4-0.4-0.7-0.7-0.9c-0.3-0.3-0.7-0.5-1.1-0.6c-0.4-0.1-0.9-0.2-1.4-0.2
		c-0.6,0-1.2,0.1-1.7,0.4c-0.5,0.2-0.9,0.6-1.2,1.1c-0.3-0.5-0.7-0.8-1.2-1.1c-0.6-0.2-1.2-0.4-1.8-0.4c-0.5,0-0.9,0.1-1.4,0.2
		c-0.4,0.1-0.8,0.3-1.1,0.6s-0.6,0.6-0.7,0.9c-0.2,0.4-0.3,0.9-0.3,1.3L209.3,70.2L209.3,70.2z M224.1,70.2h1.8v-7.8
		c-0.1,0-0.2-0.1-0.3-0.1c-0.2,0-0.3-0.1-0.5-0.1c-0.3,0-0.5,0.1-0.7,0.2c-0.2,0.2-0.3,0.4-0.3,0.6V70.2L224.1,70.2z M224.2,59.1
		c-0.4,0.4-0.4,1.1,0,1.6c0.4,0.4,1.1,0.4,1.6,0c0.4-0.4,0.4-1.1,0-1.6c-0.2-0.2-0.5-0.3-0.8-0.3C224.7,58.7,224.5,58.8,224.2,59.1
		L224.2,59.1z M227.9,70.2h1.8v-4.3c0-0.6,0.1-1.2,0.5-1.6c0.9-0.7,2.2-0.7,3.1,0c0.4,0.5,0.6,1,0.5,1.6v4.3h1.8v-4.8
		c0-0.5-0.1-1-0.3-1.4s-0.5-0.8-0.8-1.1c-0.4-0.3-0.8-0.5-1.2-0.7c-0.5-0.2-1-0.2-1.6-0.2c-0.5,0-1,0.1-1.5,0.2
		c-0.4,0.1-0.9,0.4-1.2,0.7s-0.6,0.7-0.8,1.1c-0.2,0.4-0.3,0.9-0.3,1.4V70.2L227.9,70.2z M237.9,73c0.1,0,0.2,0.1,0.4,0.2
		s0.4,0.2,0.7,0.2c0.7,0.2,1.4,0.3,2.1,0.2c0.6,0,1.2-0.1,1.8-0.3c0.5-0.2,1-0.4,1.4-0.8s0.7-0.9,0.9-1.5c0.2-0.7,0.4-1.4,0.3-2.1
		v-2.3c0-0.7-0.1-1.4-0.3-2c-0.2-0.5-0.5-1-0.9-1.4s-0.8-0.6-1.3-0.8s-1.1-0.3-1.7-0.3c-0.6,0-1.2,0.1-1.7,0.3s-1,0.5-1.4,0.9
		s-0.7,0.8-0.9,1.3s-0.3,1.1-0.3,1.7s0.1,1.1,0.3,1.6s0.5,0.9,0.8,1.3c0.4,0.4,0.8,0.6,1.3,0.8c0.5,0.2,1.1,0.3,1.6,0.3
		c0.6,0,1.1-0.1,1.7-0.4c0.4-0.2,0.8-0.5,1.1-0.8v0.2c0,0.5-0.1,1-0.3,1.4c-0.1,0.3-0.4,0.6-0.7,0.9c-0.3,0.2-0.6,0.4-0.9,0.4
		c-0.3,0.1-0.7,0.1-1.1,0.1c-0.3,0-0.6,0-0.9-0.1c-0.3,0-0.5-0.1-0.8-0.2c-0.2,0-0.4-0.1-0.5-0.2s-0.2-0.1-0.3-0.1L237.9,73z
		 M239.6,68.1c-0.5-0.5-0.7-1.2-0.7-1.8c0-0.3,0.1-0.7,0.2-1c0.1-0.3,0.3-0.6,0.5-0.8c0.2-0.2,0.5-0.4,0.8-0.5c0.6-0.3,1.3-0.3,2,0
		c0.3,0.1,0.5,0.3,0.8,0.5c0.2,0.2,0.4,0.5,0.5,0.8c0.2,0.7,0.2,1.4,0,2c-0.1,0.3-0.3,0.6-0.5,0.8c-0.2,0.2-0.5,0.4-0.8,0.5
		s-0.6,0.2-1,0.2C240.8,68.8,240.1,68.5,239.6,68.1L239.6,68.1z M257.7,68.4c-0.1,0-0.2,0.1-0.3,0.1c-0.2,0.1-0.3,0.1-0.5,0.2
		s-0.4,0.1-0.6,0.2c-0.3,0-0.5,0.1-0.8,0.1c-0.7,0-1.3-0.1-1.9-0.5c-0.4-0.3-0.7-0.8-0.8-1.3c0.2,0,0.4,0,0.6,0c0.2,0,0.4,0,0.6,0
		c0.8,0,1.5,0,2.2-0.2c0.5-0.1,1-0.3,1.4-0.5c0.3-0.2,0.6-0.4,0.7-0.8c0.1-0.3,0.2-0.7,0.2-1c0-0.7-0.3-1.4-0.9-1.8
		c-0.3-0.3-0.7-0.4-1.1-0.6c-0.5-0.2-1-0.2-1.5-0.2c-0.6,0-1.2,0.1-1.7,0.3s-1,0.5-1.4,0.9s-0.7,0.8-0.9,1.3
		c-0.2,0.6-0.3,1.1-0.3,1.7s0.1,1.2,0.3,1.8c0.2,0.5,0.5,0.9,0.9,1.3s0.8,0.6,1.3,0.8c0.5,0.2,1.1,0.3,1.7,0.3c0.4,0,0.8,0,1.2-0.1
		c0.3-0.1,0.6-0.1,0.9-0.2c0.2-0.1,0.5-0.2,0.7-0.3c0.2-0.1,0.3-0.2,0.4-0.2L257.7,68.4z M253,65c0.1-0.3,0.3-0.6,0.5-0.8
		c0.2-0.2,0.5-0.4,0.7-0.5c0.3-0.1,0.7-0.2,1-0.2c0.4,0,0.8,0.1,1.2,0.3c0.3,0.2,0.5,0.5,0.5,0.9c0,0.2,0,0.3-0.1,0.5
		s-0.2,0.3-0.4,0.4c-0.3,0.1-0.5,0.2-0.8,0.3c-0.5,0.1-0.9,0.1-1.4,0.1h-0.7c-0.2,0-0.5,0-0.7,0C252.8,65.6,252.9,65.3,253,65
		L253,65z M261.3,70.3c0.2-0.3,0.5-0.6,0.9-1.1s0.8-1,1.3-1.6c0.5,0.6,1,1.1,1.4,1.6s0.7,0.8,0.9,1.1h2.2c-0.1-0.1-0.2-0.3-0.5-0.6
		s-0.5-0.6-0.8-0.9l-1-1.2c-0.4-0.4-0.7-0.9-1.1-1.3c0.3-0.4,0.7-0.8,1-1.2l0.9-1c0.3-0.3,0.5-0.6,0.7-0.8s0.3-0.4,0.4-0.5
		c-0.1-0.1-0.2-0.2-0.4-0.3c-0.2-0.1-0.5-0.2-0.8-0.2c-0.2,0-0.4,0-0.6,0.1s-0.4,0.2-0.5,0.4c0,0-0.1,0.1-0.2,0.3s-0.3,0.3-0.4,0.5
		s-0.4,0.4-0.6,0.7s-0.4,0.5-0.6,0.7c-0.2-0.3-0.5-0.5-0.7-0.8c-0.2-0.3-0.5-0.5-0.7-0.8c-0.2-0.2-0.4-0.5-0.6-0.6s-0.3-0.3-0.3-0.3
		c-0.1,0-0.2-0.1-0.3-0.1c-0.2,0-0.3-0.1-0.5-0.1s-0.5,0.1-0.7,0.2c-0.1,0.1-0.2,0.3-0.2,0.5s0.1,0.4,0.2,0.5
		c0.1,0.2,0.3,0.4,0.5,0.6c0.2,0.2,0.5,0.5,0.9,0.9s0.8,0.8,1.3,1.3c-0.4,0.4-0.7,0.9-1.1,1.3s-0.7,0.8-1,1.2
		c-0.3,0.4-0.5,0.7-0.7,0.9c-0.2,0.2-0.3,0.4-0.4,0.5L261.3,70.3L261.3,70.3z M268.9,73.4h1.8v-4.2c0.3,0.4,0.7,0.7,1.1,0.9
		c0.5,0.2,1,0.4,1.6,0.3c0.6,0,1.1-0.1,1.6-0.3c0.5-0.2,0.9-0.5,1.3-0.9s0.7-0.8,0.9-1.3c0.2-0.5,0.3-1.1,0.3-1.7s-0.1-1.1-0.3-1.7
		c-0.2-0.5-0.5-1-0.9-1.3c-0.4-0.4-0.8-0.7-1.3-0.9s-1.1-0.3-1.7-0.3s-1.2,0.1-1.8,0.3c-0.5,0.2-1,0.5-1.4,0.9s-0.7,0.9-0.9,1.4
		c-0.2,0.6-0.3,1.3-0.3,2L268.9,73.4L268.9,73.4z M272.1,68.7c-0.3-0.1-0.6-0.3-0.8-0.5c-0.2-0.2-0.4-0.5-0.5-0.8
		c-0.2-0.7-0.2-1.4,0-2.1c0.2-0.6,0.7-1.1,1.3-1.3c0.3-0.1,0.6-0.2,1-0.2c0.3,0,0.7,0.1,1,0.2s0.6,0.3,0.8,0.5
		c0.2,0.2,0.4,0.5,0.5,0.8s0.2,0.7,0.2,1c0,0.4-0.1,0.7-0.2,1s-0.3,0.6-0.5,0.8c-0.2,0.2-0.5,0.4-0.8,0.5s-0.6,0.2-1,0.2
		C272.8,68.9,272.4,68.8,272.1,68.7L272.1,68.7z M285.4,68.4c-0.1,0-0.2,0.1-0.3,0.1c-0.2,0.1-0.3,0.1-0.5,0.2s-0.4,0.1-0.6,0.2
		c-0.3,0-0.5,0.1-0.8,0.1c-0.7,0-1.3-0.1-1.9-0.5c-0.4-0.3-0.7-0.8-0.8-1.3c0.2,0,0.4,0,0.6,0s0.4,0,0.6,0c0.8,0,1.5,0,2.2-0.2
		c0.5-0.1,1-0.3,1.4-0.5c0.3-0.2,0.6-0.5,0.7-0.8s0.2-0.7,0.2-1c0-0.7-0.3-1.4-0.9-1.8c-0.3-0.3-0.7-0.4-1.1-0.6
		c-0.5-0.2-1-0.2-1.5-0.2c-0.6,0-1.2,0.1-1.7,0.3s-1,0.5-1.4,0.9s-0.7,0.8-0.9,1.3c-0.2,0.6-0.3,1.1-0.3,1.7s0.1,1.2,0.3,1.8
		c0.2,0.5,0.5,0.9,0.9,1.3s0.8,0.6,1.3,0.8c0.5,0.2,1.1,0.3,1.7,0.3c0.4,0,0.8,0,1.2-0.1c0.3-0.1,0.6-0.1,0.9-0.2
		c0.2-0.1,0.5-0.2,0.7-0.3c0.2-0.1,0.3-0.2,0.4-0.2L285.4,68.4z M280.6,65c0.1-0.3,0.3-0.6,0.5-0.8c0.2-0.2,0.5-0.4,0.7-0.5
		c0.3-0.1,0.7-0.2,1-0.2c0.4,0,0.8,0.1,1.2,0.3c0.3,0.2,0.5,0.5,0.5,0.9c0,0.2,0,0.3-0.1,0.5s-0.2,0.3-0.4,0.4
		c-0.3,0.1-0.5,0.2-0.8,0.3c-0.5,0.1-0.9,0.1-1.4,0.1h-0.7c-0.2,0-0.5,0-0.7,0C280.5,65.6,280.5,65.3,280.6,65L280.6,65z
		 M287.7,70.3h1.8v-4.6c-0.2-0.9,0.5-1.8,1.4-1.9c0.2,0,0.3,0,0.5,0c0.3,0,0.6,0,0.9,0.1c0.2,0.1,0.5,0.1,0.7,0.2
		c0.1-0.1,0.2-0.2,0.2-0.3c0.1-0.2,0.1-0.3,0.1-0.5c0-0.4-0.3-0.7-0.6-0.8c-0.5-0.2-1.1-0.3-1.6-0.3c-0.9-0.1-1.8,0.2-2.5,0.8
		c-0.6,0.6-0.9,1.4-0.9,2.3V70.3L287.7,70.3z M294.3,67.9c0,0.7,0.2,1.4,0.7,1.9c0.6,0.5,1.3,0.8,2.1,0.7c0.3,0,0.6,0,0.9-0.1
		s0.5-0.1,0.7-0.2s0.4-0.2,0.6-0.3c0.2-0.1,0.3-0.2,0.4-0.2l-0.7-1.2c-0.2,0.1-0.4,0.2-0.6,0.3c-0.3,0.1-0.6,0.1-0.9,0.1
		c-0.2,0-0.4,0-0.5-0.1c-0.2,0-0.3-0.1-0.5-0.2c-0.1-0.1-0.2-0.3-0.3-0.4c-0.1-0.2-0.1-0.4-0.1-0.7V64h3c0-0.1,0.1-0.2,0.1-0.3
		c0.1-0.2,0.1-0.3,0.1-0.5s-0.1-0.5-0.2-0.6c-0.2-0.2-0.5-0.2-0.7-0.2h-2.3v-2.1c-0.1,0-0.2-0.1-0.3-0.1c-0.2,0-0.4-0.1-0.5-0.1
		c-0.2,0-0.5,0.1-0.7,0.2c-0.2,0.2-0.3,0.4-0.3,0.6L294.3,67.9L294.3,67.9z M300.1,69.5c0.1,0.1,0.3,0.2,0.4,0.2
		c0.3,0.1,0.5,0.2,0.8,0.3c0.4,0.1,0.8,0.2,1.2,0.3c0.5,0.1,1,0.1,1.6,0.1c1,0.1,1.9-0.2,2.7-0.7c0.6-0.4,1-1.1,0.9-1.9
		c0-0.6-0.2-1.2-0.7-1.6c-0.6-0.4-1.3-0.7-2-0.7l-1.6-0.2c-0.4,0-0.7-0.1-1-0.3c-0.2-0.1-0.4-0.4-0.3-0.6c0-0.6,0.6-1,1.8-1
		c0.7,0,1.4,0.1,2,0.3c0.2,0.1,0.4,0.2,0.6,0.3c0.1,0.1,0.2,0.1,0.3,0.2c0.1,0,0.1-0.1,0.1-0.1c0.1-0.1,0.1-0.1,0.2-0.2
		c0.1-0.1,0.1-0.2,0.2-0.3c0-0.1,0.1-0.2,0.1-0.3c-0.1-0.5-0.4-0.9-0.9-0.9c-0.8-0.3-1.7-0.4-2.6-0.4c-0.6,0-1.1,0.1-1.7,0.2
		c-0.4,0.1-0.8,0.3-1.1,0.5c-0.3,0.2-0.5,0.5-0.6,0.8s-0.2,0.6-0.2,1c0,0.3,0.1,0.7,0.2,1s0.3,0.5,0.6,0.7c0.3,0.2,0.6,0.4,0.9,0.5
		c0.4,0.1,0.8,0.2,1.2,0.2l1.2,0.1c0.4,0,0.8,0.1,1.2,0.3c0.2,0.2,0.3,0.4,0.3,0.7c0,0.3-0.2,0.6-0.5,0.7c-0.4,0.2-0.9,0.2-1.3,0.2
		s-0.8,0-1.2-0.1c-0.3-0.1-0.6-0.1-1-0.2c-0.2-0.1-0.5-0.2-0.7-0.3c-0.1-0.1-0.3-0.1-0.4-0.2L300.1,69.5z"/>
	<path id="SuperNimbus" class="st0" d="M127,19.7c-0.2-0.3-0.5-0.6-0.8-0.8c-0.3-0.2-0.6-0.4-1-0.6c-0.6-0.3-1.2-0.5-1.8-0.7
		c-0.9-0.3-1.8-0.5-2.7-0.6c-1.3-0.2-2.5-0.3-3.8-0.3c-1.7,0-3.4,0.2-5,0.6c-1.2,0.3-2.3,0.9-3.3,1.7c-0.8,0.6-1.4,1.5-1.8,2.4
		s-0.6,1.9-0.6,2.9s0.2,2,0.7,2.9c0.4,0.8,1,1.6,1.8,2.1c0.8,0.6,1.7,1.1,2.6,1.5c1.1,0.4,2.1,0.7,3.2,0.9l4.7,0.8
		c0.9,0.2,1.7,0.3,2.5,0.6c0.7,0.2,1.4,0.5,2.1,0.9c0.6,0.4,1.1,0.9,1.4,1.5c0.4,0.7,0.5,1.5,0.5,2.3c0.1,1.6-0.7,3.2-2.2,4
		c-1.8,1-3.9,1.4-6,1.3c-1.2,0-2.4-0.1-3.6-0.3c-1-0.2-2-0.5-2.9-0.8c-0.8-0.3-1.5-0.6-2.2-1c-0.6-0.3-1.1-0.6-1.5-0.9l-1.3,2.1
		c0.6,0.4,1.2,0.7,1.8,1c0.8,0.4,1.7,0.8,2.5,1.1c1.1,0.4,2.1,0.6,3.2,0.8c1.3,0.2,2.6,0.3,4,0.3c1.7,0,3.3-0.2,4.9-0.6
		c1.3-0.3,2.4-0.9,3.5-1.6c0.9-0.6,1.6-1.5,2.1-2.5s0.7-2.1,0.7-3.2c0.1-1.8-0.7-3.6-2-4.8c-1.8-1.4-4-2.2-6.2-2.5l-4.7-0.9
		c-0.9-0.2-1.8-0.4-2.7-0.7c-0.7-0.2-1.4-0.6-2.1-1c-0.5-0.4-1-0.8-1.3-1.4s-0.5-1.3-0.5-2c0-3.4,2.6-5.1,7.9-5.1
		c1.2,0,2.4,0.1,3.5,0.4c0.9,0.2,1.8,0.5,2.7,0.8c0.7,0.3,1.3,0.6,1.9,1c0.4,0.3,0.8,0.5,1.1,0.9c0.3-0.2,0.5-0.4,0.6-0.7
		c0.2-0.3,0.3-0.6,0.3-1C127.2,20.2,127.1,19.9,127,19.7z M148.9,35.9c0.1,1.9-0.5,3.7-1.6,5.1c-1.3,1.3-3.1,2-5,1.8
		c-1.8,0.1-3.6-0.5-5-1.8c-1.2-1.4-1.7-3.3-1.6-5.1V25.3c-0.2-0.1-0.3-0.1-0.5-0.2s-0.5-0.1-0.7-0.1c-0.7-0.1-1.3,0.4-1.4,1.1
		c0,0.1,0,0.2,0,0.3v10.4c0,1.2,0.2,2.3,0.6,3.4c0.4,1,1,1.9,1.8,2.7s1.8,1.4,2.9,1.7c1.2,0.4,2.5,0.6,3.8,0.6s2.6-0.2,3.9-0.6
		c1.1-0.4,2.1-1,2.9-1.7c0.8-0.7,1.4-1.6,1.8-2.7c0.4-1.1,0.6-2.2,0.6-3.4V25.3c-0.2-0.1-0.3-0.1-0.5-0.2s-0.5-0.1-0.7-0.1
		c-0.7-0.1-1.3,0.4-1.4,1c0,0.1,0,0.2,0,0.3L148.9,35.9L148.9,35.9z M173.4,38c-0.3,1-0.9,1.8-1.5,2.6c-0.7,0.7-1.5,1.3-2.4,1.7
		c-1,0.4-2.1,0.6-3.2,0.6c-1.1,0-2.1-0.2-3.1-0.7c-1.9-0.8-3.3-2.4-4-4.3c-0.4-1-0.6-2.1-0.6-3.2c0-1.1,0.2-2.2,0.6-3.2
		c0.3-0.9,0.9-1.8,1.5-2.6c0.7-0.7,1.5-1.3,2.4-1.7c1-0.4,2.1-0.6,3.1-0.6c1.1,0,2.2,0.2,3.2,0.6c1.9,0.8,3.3,2.4,4,4.3
		C174.1,33.7,174.1,35.9,173.4,38z M155.9,52.5h2.6V41.3c0.8,1.2,1.9,2.1,3.1,2.8c1.4,0.7,3,1.1,4.6,1.1c1.5,0,2.9-0.3,4.2-0.8
		c1.2-0.5,2.4-1.2,3.3-2.2c0.9-0.9,1.7-2.1,2.2-3.3c1-2.6,1-5.5,0-8.1c-1-2.5-3-4.5-5.5-5.5c-1.3-0.6-2.8-0.8-4.2-0.8
		c-1.3,0-2.5,0.2-3.7,0.6c-1.1,0.4-2.1,0.9-3,1.6s-1.6,1.6-2.2,2.6c-0.6,1.1-1,2.3-1.2,3.5c-0.1,0.4-0.1,0.8-0.1,1.3
		s-0.1,1.1-0.1,1.7L155.9,52.5L155.9,52.5z M185.1,36.6c0.7,0,1.5,0,2.3,0c1.8,0,3.7-0.1,5.4-0.5c1.2-0.2,2.4-0.6,3.4-1.3
		c0.8-0.5,1.4-1.1,1.8-1.9c0.4-0.7,0.5-1.6,0.5-2.4s-0.2-1.7-0.5-2.4c-0.3-0.8-0.8-1.4-1.5-2s-1.6-1-2.5-1.3
		c-1.1-0.3-2.3-0.5-3.5-0.5c-1.5,0-2.9,0.2-4.3,0.8c-1.3,0.5-2.4,1.2-3.4,2.2s-1.7,2.1-2.2,3.4c-0.5,1.4-0.8,2.9-0.8,4.3
		c0,1.5,0.3,3,0.8,4.3c0.5,1.2,1.3,2.3,2.3,3.1c1,0.9,2.1,1.5,3.4,1.9c1.3,0.4,2.7,0.7,4.1,0.7c0.9,0,1.7-0.1,2.5-0.2
		c0.7-0.1,1.4-0.3,2.1-0.5c0.5-0.2,1-0.4,1.5-0.7c0.4-0.2,0.7-0.4,1-0.5l-1.1-1.9c-0.7,0.4-1.4,0.7-2.2,1c-1.1,0.4-2.3,0.6-3.4,0.6
		c-2,0.1-3.9-0.5-5.5-1.7c-1.4-1.2-2.3-2.9-2.5-4.7C183.6,36.6,184.3,36.6,185.1,36.6z M183.3,31.5c0.3-0.9,0.9-1.8,1.5-2.5
		c0.7-0.8,1.5-1.4,2.4-1.8c1-0.5,2.2-0.7,3.3-0.7c0.7,0,1.3,0.1,2,0.2c0.6,0.1,1.2,0.3,1.7,0.7c0.5,0.3,0.9,0.7,1.2,1.2
		c0.3,0.6,0.5,1.2,0.5,1.9c0,0.6-0.1,1.1-0.4,1.6c-0.3,0.6-0.8,1-1.4,1.3c-0.9,0.4-1.8,0.7-2.8,0.9c-1.5,0.2-3,0.4-4.4,0.3
		c-0.7,0-1.4,0-2.1,0c-0.7,0-1.4,0-2.1-0.1C182.8,33.4,183,32.4,183.3,31.5L183.3,31.5z M213.9,24.9c-1.2-0.3-2.4-0.5-3.6-0.5
		c-2.6,0-4.6,0.6-6,1.9c-1.4,1.4-2.2,3.3-2.1,5.3v12.9h2.6V32.9c0-0.9,0.1-1.8,0.3-2.6c0.2-0.7,0.5-1.4,1-1.9s1.1-0.9,1.8-1.2
		c0.9-0.3,1.8-0.4,2.7-0.4c0.8,0,1.6,0.1,2.4,0.3c0.6,0.1,1.2,0.3,1.7,0.6c0.2-0.2,0.3-0.3,0.4-0.5c0.1-0.2,0.2-0.5,0.2-0.7
		C215.3,25.7,214.7,25,213.9,24.9L213.9,24.9z M218.2,44.6h6.5V27.9c0.5,0.7,1,1.5,1.7,2.5s1.4,2,2.1,3.1c0.7,1.1,1.5,2.2,2.2,3.4
		c0.8,1.1,1.5,2.2,2.1,3.2c0.7,1,1.2,1.9,1.7,2.7s0.9,1.4,1.1,1.8h6.2V18c-0.1-0.1-0.5-0.2-1.1-0.4c-0.7-0.2-1.3-0.3-2-0.3
		c-0.9,0-1.8,0.2-2.5,0.7s-1,1.4-1,2.3v13c-0.3-0.6-0.8-1.3-1.4-2.2l-2-3c-0.7-1.1-1.4-2.2-2.2-3.3c-0.8-1.1-1.5-2.1-2.1-3.1
		c-0.6-0.9-1.2-1.7-1.7-2.3c-0.3-0.4-0.6-0.8-0.9-1.1c-0.3-0.2-0.7-0.4-1.1-0.6c-0.7-0.3-1.5-0.4-2.2-0.4c-0.4,0-0.9,0.1-1.3,0.2
		c-0.4,0.1-0.8,0.3-1.2,0.5c-0.4,0.3-0.6,0.6-0.8,1.1s-0.3,1.1-0.3,1.7L218.2,44.6L218.2,44.6z M247.1,44.6h6.4V25
		c-0.2-0.1-0.5-0.2-1.1-0.3c-0.6-0.2-1.3-0.3-1.9-0.3c-0.9,0-1.7,0.2-2.4,0.6c-0.7,0.5-1,1.3-0.9,2.2L247.1,44.6L247.1,44.6z
		 M247.7,21.5c0.7,0.7,1.6,1,2.5,1s1.9-0.3,2.5-1c0.7-0.7,1.1-1.6,1-2.5c0-1.9-1.5-3.5-3.5-3.6h-0.1c-0.9,0-1.9,0.3-2.5,1
		c-0.7,0.7-1,1.6-1,2.5C246.7,19.9,247.1,20.8,247.7,21.5L247.7,21.5z M258,44.6h6.4V33.4c-0.1-1,0.2-2.1,0.9-2.9
		c0.6-0.6,1.5-0.9,2.4-0.9s1.9,0.3,2.5,1c0.7,0.9,1.1,2.1,0.9,3.3v10.6h6.4V34c-0.1-1.2,0.2-2.4,1-3.3c0.7-0.7,1.6-1.1,2.5-1
		c0.9-0.1,1.7,0.3,2.3,0.9c0.6,0.8,0.9,1.9,0.8,2.9v11.1h6.4v-13c0-1.2-0.2-2.3-0.7-3.4c-0.4-0.9-1.1-1.8-1.9-2.4
		c-0.8-0.7-1.8-1.2-2.9-1.5c-1.2-0.3-2.3-0.5-3.5-0.5c-1.4,0-2.9,0.2-4.2,0.8c-1.2,0.5-2.2,1.2-3,2.2c-0.8-1-1.8-1.7-3-2.2
		c-1.3-0.5-2.8-0.8-4.2-0.8c-1.2,0-2.4,0.2-3.6,0.5c-1,0.3-2,0.8-2.9,1.5c-0.8,0.7-1.5,1.5-1.9,2.4c-0.5,1.1-0.7,2.2-0.7,3.4
		L258,44.6L258,44.6z M294.4,33.6c0,1.5,0.1,3,0.5,4.4c0.3,1.1,0.8,2.2,1.5,3.1c1,1.3,2.3,2.4,3.8,3c1.6,0.7,3.4,1.1,5.2,1
		c1.5,0,3-0.2,4.3-0.8c1.3-0.5,2.5-1.2,3.5-2.2c1-0.9,1.8-2.1,2.3-3.4c0.6-1.4,0.8-2.9,0.8-4.4s-0.2-3-0.8-4.4
		c-0.5-1.2-1.2-2.4-2.1-3.3c-1.8-1.9-4.3-2.9-6.9-2.9c-1.3,0-2.5,0.2-3.7,0.7c-0.8,0.4-1.5,0.9-2.2,1.4V16c-0.2-0.1-0.5-0.2-1.1-0.3
		c-0.6-0.2-1.3-0.3-1.9-0.3c-0.9,0-1.7,0.2-2.4,0.6c-0.7,0.5-1,1.3-0.9,2.2L294.4,33.6L294.4,33.6z M302,38
		c-0.9-0.9-1.4-2.2-1.3-3.5c0-0.7,0.1-1.3,0.3-1.9c0.2-0.6,0.5-1.1,1-1.5c0.4-0.4,0.9-0.8,1.4-1c0.6-0.3,1.2-0.4,1.8-0.4
		c1.2,0,2.4,0.5,3.3,1.4c0.9,1,1.3,2.2,1.3,3.5c0.1,1.3-0.4,2.5-1.3,3.4s-2,1.3-3.3,1.3C304,39.3,302.8,38.9,302,38z M326.3,25
		c-0.2-0.1-0.5-0.2-1.1-0.3c-0.6-0.2-1.3-0.3-1.9-0.3c-0.9,0-1.7,0.2-2.4,0.6c-0.7,0.5-1,1.3-0.9,2.2v9.2c0,1.3,0.2,2.6,0.8,3.9
		c0.5,1.1,1.2,2,2.1,2.7c1,0.8,2,1.3,3.2,1.6c2.6,0.7,5.4,0.7,8,0c1.2-0.3,2.3-0.9,3.2-1.6c0.9-0.7,1.6-1.7,2.1-2.7
		c0.5-1.2,0.8-2.5,0.8-3.9V25c-0.2-0.1-0.5-0.2-1.1-0.3c-0.6-0.2-1.3-0.3-1.9-0.3c-0.9,0-1.7,0.2-2.4,0.6c-0.7,0.5-1,1.3-0.9,2.2v8
		c0,2.7-1.2,4.1-3.7,4.1s-3.7-1.4-3.7-4.1L326.3,25L326.3,25z M343.3,42.5c0.4,0.3,0.7,0.5,1.1,0.7c0.7,0.4,1.4,0.7,2.1,0.9
		c2.3,0.7,4.8,1.1,7.3,1.1c2.5,0.1,4.9-0.5,7-1.9c1.7-1.2,2.6-3.1,2.5-5.2c0-0.9-0.2-1.9-0.6-2.7c-0.4-0.7-0.9-1.3-1.5-1.8
		c-0.7-0.5-1.4-0.9-2.2-1.1c-0.9-0.3-1.7-0.4-2.6-0.6l-3.6-0.5c-0.7-0.1-1.3-0.2-1.9-0.5c-0.4-0.1-0.7-0.5-0.6-1
		c0-0.5,0.3-0.9,0.7-1.1c0.8-0.3,1.6-0.5,2.5-0.4c0.9,0,1.9,0.1,2.8,0.2c0.7,0.1,1.4,0.3,2.1,0.5c0.5,0.2,1,0.4,1.4,0.6
		c0.2,0.1,0.4,0.3,0.7,0.4c0.1,0,0.2-0.1,0.4-0.2c0.5-0.4,0.9-0.8,1.2-1.4c0.2-0.3,0.3-0.7,0.3-1.1c0-0.5-0.1-1-0.5-1.4
		c-0.3-0.4-0.7-0.7-1.2-1c-1-0.5-2-0.8-3.1-1c-1.4-0.2-2.9-0.3-4.3-0.3s-2.9,0.2-4.2,0.5c-1.1,0.3-2.1,0.8-2.9,1.5
		c-0.7,0.6-1.3,1.3-1.7,2.2c-0.4,0.9-0.5,1.8-0.5,2.7c0,1,0.2,2,0.6,2.9c0.4,0.8,1,1.4,1.7,1.9c0.8,0.5,1.6,0.9,2.5,1.1
		c1,0.3,2,0.4,3,0.6l2.1,0.2c0.7,0.1,1.5,0.2,2.2,0.5c0.4,0.2,0.7,0.6,0.7,1.1s-0.3,0.9-0.8,1.1c-0.8,0.2-1.6,0.3-2.5,0.3
		s-1.8-0.1-2.7-0.2c-0.8-0.1-1.5-0.3-2.3-0.5c-0.6-0.2-1.2-0.4-1.7-0.6c-0.4-0.2-0.7-0.3-1-0.6L343.3,42.5z"/>
	<g transform="translate(0.000000,1175.000000) scale(0.100000,-0.100000)">
		<path class="st1" d="M390.8,11749.8c-28.2-1.9-40.4-3.3-58.6-7c-68.5-13.6-131.5-43.3-182.9-86c-38.4-32.1-70.7-70.6-96.2-114.8
			c-8.5-14.8-10-17.7-16.3-31.4c-11.5-25.1-15.6-35.9-22-58.2c-7.2-25.1-8.7-33-13.1-69c-1.4-11.6-1.8-19.6-1.8-38.3
			c0-29,1-40.2,5.6-66c11.6-63,44.5-128.8,87.8-175.6c19.7-21.2,45.2-42.9,68.9-58.5c29.2-19.2,64-35.6,95.4-44.8
			c23.5-6.8,38-9.3,72.3-12.4c24.8-2.1,61.1-0.8,86.8,3.2c23.5,3.7,51.5,11.4,75.2,20.8c12.1,4.7,33.6,15.4,45.5,22.7
			c54.4,32.8,95.1,73.4,123.8,123.7c9.5,16.6,19.5,37.8,23.9,51c4,11.6,9.5,29.4,11.1,35.7c2.9,11.7,7.1,38.7,7.7,50.1
			c0.8,15.6,0.4,46.7-0.9,58.4c-6.4,56.5-25.6,109.4-55.1,151.6c-25.4,36.1-66.9,70.7-112.3,93.4c-20.8,10.4-49.3,19.7-71.9,23.4
			c-26.9,4.4-41.7,5.7-60.4,5.2c-25.6-0.7-44.4-3.2-67.1-8.7c-61.7-15-115-50.3-150.3-99.3c-13.2-18.3-26.6-45-34.3-68
			c-3.3-10-8.5-35.2-9.5-45.9c-1-11.7-0.4-47.2,0.9-56.1c7.3-49.2,24-84.3,54.8-115.1c18.4-18.4,37.3-31,63.2-42.4
			c5.4-2.3,10.2-4.1,10.7-4c1.8,0.7,0.8,4.2-2.5,9.5c-13.3,20.8-20.1,47.7-17.9,70.7c4.5,47.2,35.3,86.6,78.9,101
			c14,4.7,20.8,5.8,36,5.8c14,0.1,16.9-0.3,28.9-3.7c24.3-6.7,51-25.9,64.8-46.6c9.3-13.9,15.2-29.6,17.7-47.2
			c4.1-28.3,0.2-54.2-11.9-79c-9.2-19-24.3-36-45-51c-31.6-22.9-68.6-34-107.9-32.4c-6.4,0.2-12.8,0.6-14.1,0.8
			c-12.9,2-17.2,2.8-26.1,4.9c-22.2,5.5-34.7,9.9-50.5,17.8c-39.7,20-72.7,50.3-97.4,89.5c-5.7,9-16.5,30.2-20.5,39.9
			c-18.6,46.5-26.3,102.8-19.7,146.1c11.2,73.8,41.9,131.6,96.2,181.2c23.9,21.8,50.9,39.9,81.4,54.5c23.8,11.4,50.3,20.8,72.5,25.8
			c19.3,4.4,52.9,8.1,72.5,8.1c14.1,0,45.4-2.5,52.2-4.2c3.1-0.8,9.2-1.9,13.4-2.5c17.2-2.5,48.1-11.8,70.7-21.1
			c30.5-12.5,65-33.6,90.3-55.2c10-8.5,30.2-29,38.1-38.4c17.4-20.9,33.7-46.2,46.9-72.7c8.1-16.2,13.2-28.4,18.7-44.8
			c9.3-27.7,14-48.9,17-77.3c2.3-21.7,1.5-79.6-1.4-96.8c-5.8-34.5-12.7-58.8-25.6-90.3c-20.8-50.9-46.2-89.2-84.6-127.4
			c-28.6-28.6-53.8-46.9-88.7-64.6c-48.9-24.8-100-39.5-153.5-44.1c-15.7-1.3-35.8-2.3-45.2-2c-26.7,0.7-43.1,1.8-63.9,4.4
			c-6,0.8-12.8,1.6-15.2,1.8c-2.3,0.3-5.2,0.9-6.4,1.4c-3.8,1.6-7.7,2-8.6,0.8c-0.7-0.8-0.6-1.2,0-1.8c2.1-1.8,13.8-6.2,23.5-9.1
			c23.9-7,41.7-10.8,60.7-12.9c6.6-0.8,17.5-2,24.3-2.8c35.9-4.1,81.7-1.6,117.8,6.4c65.4,14.5,120.3,40.5,170.3,80.3
			c60.2,48.2,105.2,111.5,132.4,186.3c2.8,7.5,11.4,37.7,13.6,47.2c1.6,7,6.6,37.8,7.8,47.6c1.6,13.6,2.4,54.5,1.6,75.5
			c-1.3,30.3-10.4,75.1-21.9,107c-26.2,72.9-63.6,128-120.2,176.9c-38.3,33.2-82.7,59.1-129.1,75.3c-42.4,14.9-80.8,21.8-130.3,23.4
			C404.5,11750.1,394.9,11750.1,390.8,11749.8z"/>
	</g>
</g>
</svg>
